{
  "title": "Mr.Robot.S01E04.720p.HDTV.x264-KILLERS[rarbg]",
  "uid": 12131788,
  "size": 759939388,
  "categoryP": "video",
  "categoryS": "hd___tv_shows",
  "magnet": "?xt=urn:btih:6e291800d6c8efa10f8eacb7bcae3e83c36b5666&amp;dn=Mr.Robot.S01E04.720p.HDTV.x264-KILLERS%5Brarbg%5D&amp;tr=udp%3A%2F%2Ftracker.openbittorrent.com%3A80&amp;tr=udp%3A%2F%2Fopen.demonii.com%3A1337&amp;tr=udp%3A%2F%2Ftracker.coppersurfer.tk%3A6969&amp;tr=udp%3A%2F%2Fexodus.desync.com%3A6969",
  "seeders": 59,
  "leechers": 20,
  "uploader": "vickey1992",
  "files": 3,
  "time": 1437061710,
  "description": "Mr.Robot.S01E04.720p.HDTV.x264-KILLERS\n\nDay: 2015-07-16\nResolution: 1280x720\nSize: 725 MiB\nFrameRate: 23.976\nLength: 00:44:31.648\nBitrate: 1846 Kbps\n\nVideo\nID                                       : 1\nFormat                                   : AVC\nFormat/Info                              : Advanced Video Codec\nFormat profile                           : &lt;a class=&quot;__cf_email__&quot; href=&quot;/cdn-cgi/l/email-protection&quot; data-cfemail=&quot;eba3828c83aba7dfc5da&quot;&gt;[email&amp;#160;protected]&lt;/a&gt;&lt;script data-cfhash='f9e31' type=&quot;text/javascript&quot;&gt;\n/* &lt;![CDATA[ */!function(){try{var t=&quot;currentScript&quot;in document?document.currentScript:function(){for(var t=document.getElementsByTagName(&quot;script&quot;),e=t.length;e--;)if(t[e].getAttribute(&quot;data-cfhash&quot;))return t[e]}();if(t&amp;&amp;t.previousSibling){var e,r,n,i,c=t.previousSibling,a=c.getAttribute(&quot;data-cfemail&quot;);if(a){for(e=&quot;&quot;,r=parseInt(a.substr(0,2),16),n=2;a.length-n;n+=2)i=parseInt(a.substr(n,2),16)^r,e+=String.fromCharCode(i);e=document.createTextNode(e),c.parentNode.replaceChild(e,c)}t.parentNode.removeChild(t);}}catch(u){}}()/* ]]&gt; */&lt;/script&gt;\nFormat settings, CABAC                   : Yes\nFormat settings, ReFrames                : 5 frames\nCodec ID                                 : V_MPEG4/ISO/AVC\nDuration                                 : 44mn 31s\nBit rate                                 : 1 846 Kbps\nWidth                                    : 1 280 pixels\nHeight                                   : 720 pixels\nDisplay aspect ratio                     : 16:9\nFrame rate mode                          : Constant\nFrame rate                               : 23.976 fps\nColor space                              : YUV\nChroma subsampling                       : 4:2:0\nBit depth                                : 8 bits\nScan type                                : Progressive\nBits/(Pixel*Frame)                       : 0.084\nStream size                              : 588 MiB (81%)\nWriting library                          : x264 core 146 r2538 121396c\nEncoding settings                        : cabac=1 / ref=5 / deblock=1:0:0 / analyse=0x3:0x113 / me=umh / subme=8 / psy=1 / psy_rd=1.00:0.00 / mixed_ref=1 / me_range=16 / chroma_me=1 / trellis=1 / 8x8dct=1 / cqm=0 / deadzone=21,11 / fast_pskip=1 / chroma_qp_offset=-2 / threads=24 / lookahead_threads=4 / sliced_threads=0 / nr=0 / decimate=1 / interlaced=0 / bluray_compat=0 / constrained_intra=0 / bframes=3 / b_pyramid=2 / b_adapt=2 / b_bias=0 / direct=3 / weightb=1 / open_gop=0 / weightp=2 / keyint=250 / keyint_min=23 / scenecut=40 / intra_refresh=0 / rc_lookahead=50 / rc=crf / mbtree=1 / crf=18.0 / qcomp=0.60 / qpmin=0 / qpmax=69 / qpstep=4 / ip_ratio=1.40 / aq=1:1.00\nLanguage                                 : English\nDefault                                  : Yes\nForced                                   : No\nColor range                              : Limited\nMatrix coefficients                      : BT.709\n\nAudio\nID                                       : 2\nFormat                                   : AC-3\nFormat/Info                              : Audio Coding 3\nMode extension                           : CM (complete main)\nFormat settings, Endianness              : Big\nCodec ID                                 : A_AC3\nDuration                                 : 44mn 31s\nBit rate mode                            : Constant\nBit rate                                 : 384 Kbps\nChannel(s)                               : 6 channels\nChannel positions                        : Front: L C R, Side: L R, LFE\nSampling rate                            : 48.0 KHz\nCompression mode                         : Lossy\nStream size                              : 122 MiB (17%)\nDefault                                  : Yes\nForced                                   : No",
  "parsed": {
    "xt": "urn:btih:6e291800d6c8efa10f8eacb7bcae3e83c36b5666",
    "dn": "Mr.Robot.S01E04.720p.HDTV.x264-KILLERS[rarbg]",
    "tr": [
      "udp://exodus.desync.com:6969",
      "udp://open.demonii.com:1337",
      "udp://tracker.coppersurfer.tk:6969",
      "udp://tracker.openbittorrent.com:80"
    ],
    "infoHash": "6e291800d6c8efa10f8eacb7bcae3e83c36b5666",
    "infoHashBuffer": {
      "type": "Buffer",
      "data": [
        110,
        41,
        24,
        0,
        214,
        200,
        239,
        161,
        15,
        142,
        172,
        183,
        188,
        174,
        62,
        131,
        195,
        107,
        86,
        102
      ]
    },
    "name": "Mr.Robot.S01E04.720p.HDTV.x264-KILLERS[rarbg]",
    "announce": [
      "udp://exodus.desync.com:6969",
      "udp://open.demonii.com:1337",
      "udp://tracker.coppersurfer.tk:6969",
      "udp://tracker.openbittorrent.com:80"
    ],
    "urlList": []
  },
  "previous": 79,
  "peers": 124,
  "last_updated": "2016-12-25T04:09:21.914Z"
}